<?xml version="1.0" encoding="UTF-8"?>
<svg width="256px" height="256px" viewBox="0 0 256 256" version="1.1" xmlns="http://www.w3.org/2000/svg">
    <g stroke="none" stroke-width="1" fill="none" fill-rule="evenodd">
        <path d="M128,0 C198.692448,0 256,57.307552 256,128 C256,198.692448 198.692448,256 128,256 C57.307552,256 0,198.692448 0,128 C0,57.307552 57.307552,0 128,0 Z" fill="#FFFFFF"/>
        <path d="M130.018,82.363 L188.859,82.363 L188.859,96.363 L130.018,96.363 C121.714,96.363 114.977,103.1 114.977,111.404 L114.977,144.596 C114.977,152.9 121.714,159.637 130.018,159.637 L188.859,159.637 L188.859,173.637 L130.018,173.637 C113.886,173.637 100.977,160.728 100.977,144.596 L100.977,111.404 C100.977,95.272 113.886,82.363 130.018,82.363 Z" fill="#4285F4"/>
        <path d="M67.141,82.363 L81.141,82.363 L81.141,173.637 L67.141,173.637 L67.141,82.363 Z" fill="#34A853"/>
        <path d="M130.018,111.404 L188.859,111.404 L188.859,144.596 L130.018,144.596 L130.018,111.404 Z" fill="#EA4335"/>
    </g>
</svg>
