<?xml version="1.0" encoding="UTF-8"?>
<svg width="256px" height="256px" viewBox="0 0 256 256" version="1.1" xmlns="http://www.w3.org/2000/svg">
    <g stroke="none" stroke-width="1" fill="none" fill-rule="evenodd">
        <path d="M128,0 C198.692448,0 256,57.307552 256,128 C256,198.692448 198.692448,256 128,256 C57.307552,256 0,198.692448 0,128 C0,57.307552 57.307552,0 128,0 Z" fill="#0668E1"/>
        <path d="M181.872486,78.7548921 C169.890445,70.3115251 155.757935,65.4631169 140.828544,64.8931038 L140.828544,95.7502119 C140.828544,108.998305 130.165173,119.661676 116.91708,119.661676 L85.8837449,119.661676 C85.8837449,149.222324 109.823458,173.162037 139.384106,173.162037 L139.384106,190.993161 C125.436082,190.993161 112.283544,186.889726 101.301503,179.586329 L85.8837449,203.497794 C101.301503,215.294862 119.517601,221.850296 139.384106,221.850296 C182.442499,221.850296 217.241331,187.051464 217.241331,143.993071 C217.241331,116.957785 203.293307,92.8520744 181.872486,78.7548921 Z" fill="#FFFFFF"/>
        <path d="M139.384106,34.0359686 C82.9227639,34.0359686 37.1591135,79.7996191 37.1591135,136.261087 C37.1591135,163.296246 48.9561816,187.402084 67.6675058,204.663013 L83.0852641,180.751548 C69.8922904,168.954479 61.6337103,153.511195 61.6337103,136.261087 C61.6337103,93.2027569 96.4325425,58.4039247 139.384106,58.4039247 L139.384106,34.0359686 Z" fill="#FFFFFF"/>
    </g>
</svg>
